<?xml version="1.0" encoding="utf-8"?>
<!-- Generator: Adobe Illustrator 22.1.0, SVG Export Plug-In . SVG Version: 6.00 Build 0)  -->
<svg version="1.1" id="Layer_1" xmlns="http://www.w3.org/2000/svg" xmlns:xlink="http://www.w3.org/1999/xlink" x="0px" y="0px"
	 viewBox="0 0 512 512" style="enable-background:new 0 0 512 512;" xml:space="preserve">
<g>
	<path d="M253.1,139.4c0.9,0.4,1.6,1.5,2.6,1.5c1,0,2.5-0.4,2.5-1.3c0.2-1.2-1.7-2-2.8-2.5c-1.5-0.6-3.4-0.9-4.8-0.1
		c-0.4,0.2-0.7,0.6-0.5,1C250.4,139,252.1,138.8,253.1,139.4L253.1,139.4z M233.9,140.9c1.1,0,1.8-1.1,2.6-1.5
		c1-0.5,2.7-0.4,3.1-1.4c0.2-0.4-0.2-0.8-0.5-1c-1.4-0.8-3.3-0.5-4.8,0.1c-1.1,0.5-3,1.3-2.8,2.5C231.5,140.5,233,140.9,233.9,140.9
		z M428.2,385.9c-3.2-3.5-4.7-10.2-6.3-17.3c-1.6-7.1-3.4-14.8-9.2-19.7c-1.1-1-2.3-1.8-3.5-2.5c-1.1-0.7-2.4-1.3-3.6-1.8
		c8.1-24,4.9-47.9-3.3-69.5c-10-26.5-27.5-49.6-40.9-65.4c-15-18.9-29.6-36.8-29.4-63.3c0.4-40.3,4.5-115.3-66.6-115.4
		c-90-0.2-67.5,90.9-68.5,118.8c-1.5,20.6-5.6,36.7-19.8,56.9c-16.6,19.8-40,51.7-51.1,85c-5.3,15.7-7.7,31.7-5.4,46.8
		c-5.7,5.1-10,12.9-14.6,17.8c-3.7,3.8-9.1,5.2-14.9,7.3s-12.3,5.3-16.3,12.7c-1.8,3.4-2.5,7.1-2.5,10.9c0,3.4,0.5,6.9,1.1,10.4
		c1.1,7.1,2.2,13.8,0.7,18.3c-4.6,12.7-5.2,21.4-1.9,27.9c3.3,6.4,10,9.2,17.7,10.8c15.2,3.2,35.9,2.4,52.1,11
		c17.4,9.1,35.1,12.4,49.1,9.1c10.2-2.3,18.5-8.4,22.8-17.8c11-0.1,23.1-4.7,42.4-5.8c13.1-1.1,29.5,4.7,48.4,3.6
		c0.5,2,1.2,4,2.2,5.9v0.1c7.3,14.7,20.9,21.4,35.4,20.2c14.6-1.1,30-9.7,42.4-24.5c12-14.4,31.6-20.4,44.7-28.3
		c6.5-4,11.8-8.9,12.2-16.1C442.1,404.8,437.9,396.8,428.2,385.9L428.2,385.9z M255.6,107.7c8.6-19.5,30.1-19.2,38.7-0.4
		c5.7,12.5,3.2,27.2-3.8,35.5c-1.4-0.7-5.2-2.3-11.1-4.3c1-1.1,2.7-2.4,3.4-4c4.2-10.4-0.2-23.7-8-24c-6.4-0.4-12.2,9.5-10.4,20.2
		c-3.6-1.8-8.3-3.1-11.4-3.9C252.2,120.8,252.8,114,255.6,107.7z M219.9,97.6c8.9,0,18.3,12.5,16.8,29.4c-3.1,0.9-6.2,2.2-9,4
		c1.1-7.8-2.9-17.7-8.4-17.2c-7.4,0.6-8.6,18.6-1.6,24.7c0.9,0.7,1.7-0.2-5.2,4.8C198.8,130.6,203.3,97.6,219.9,97.6z M207.9,151
		c5.4-4,12-8.8,12.4-9.2c4.1-3.9,11.9-12.5,24.5-12.5c6.2,0,13.7,2,22.8,7.8c5.5,3.6,9.9,3.9,19.9,8.2c7.4,3.1,12,8.5,9.2,16
		c-2.3,6.2-9.7,12.7-19.9,15.9c-9.8,3.2-17.4,14.1-33.6,13.1c-3.4-0.2-6.2-0.9-8.4-1.8c-7-3.1-10.7-9.1-17.6-13.2
		c-7.6-4.2-11.6-9.1-12.9-13.4C203,157.5,204.2,153.9,207.9,151L207.9,151z M210.8,444.5c-2.4,30.8-38.6,30.2-66.2,15.8
		c-26.3-13.9-60.3-5.7-67.2-19.2c-2.1-4.1-2.1-11.2,2.3-23.2v-0.2c2.1-6.7,0.5-14.1-0.5-21c-1.1-6.9-1.6-13.2,0.8-17.6
		c3.1-5.9,7.5-8,13-9.9c9.1-3.3,10.4-3,17.2-8.7c4.8-5,8.3-11.3,12.6-15.8c4.5-4.8,8.8-7.1,15.6-6.1c7.1,1.1,13.3,6,19.2,14.1
		l17.2,31.3C183.1,401.4,212.7,426.5,210.8,444.5L210.8,444.5z M209.6,421.7c-3.6-5.8-8.4-12-12.7-17.2c6.2,0,12.5-1.9,14.7-7.8
		c2-5.4,0-13.1-6.5-21.9c-11.9-16-33.7-28.6-33.7-28.6c-11.9-7.4-18.5-16.4-21.6-26.3c-3.1-9.8-2.6-20.5-0.3-30.9
		c4.6-20.1,16.3-39.7,23.9-52c2-1.5,0.7,2.8-7.6,18.3c-7.5,14.1-21.4,46.8-2.3,72.4c0.5-18.2,4.8-36.7,12.1-54
		c10.5-24.1,32.8-65.8,34.5-99c1,0.7,4,2.8,5.4,3.6c4,2.4,7.1,5.9,11.1,9.1c10.9,8.8,25,8.1,37.3,1.1c5.4-3.1,9.8-6.6,14-7.9
		c8.7-2.7,15.6-7.6,19.6-13.2c6.8,26.7,22.6,65.3,32.7,84.1c5.4,10,16.1,31.2,20.7,56.8c2.9-0.1,6.2,0.4,9.6,1.2
		c12.1-31.4-10.3-65.2-20.5-74.6c-4.1-4-4.3-5.8-2.3-5.7c11.1,9.8,25.7,29.6,30.9,51.9c2.5,10.2,2.9,20.8,0.4,31.4
		c14.4,6,31.6,15.7,27,30.6c-1.9-0.1-2.8,0-3.7,0c2.8-8.9-3.4-15.5-20-22.9c-17.2-7.6-31.6-7.6-33.7,11c-10.6,3.7-16.1,12.9-18.8,24
		c-2.5,9.8-3.2,21.7-3.9,35.1c-0.4,6.8-3.2,15.8-6,25.5C281.8,435.5,242.6,444.3,209.6,421.7L209.6,421.7z M435.8,411.6
		c-0.8,14.8-36.2,17.5-55.5,40.9c-11.6,13.8-25.8,21.4-38.3,22.4c-12.5,1-23.3-4.2-29.6-17c-4.1-9.8-2.1-20.3,1-31.9
		c3.3-12.5,8.1-25.3,8.7-35.7c0.7-13.4,1.5-25,3.7-34c2.3-9.1,5.8-15.1,12-18.5c0.3-0.2,0.6-0.3,0.9-0.4
		c0.7,11.6,6.4,23.4,16.5,25.9c11.1,2.9,27-6.6,33.7-14.3c7.9-0.3,13.8-0.8,19.9,4.5c8.7,7.5,6.2,26.6,15,36.6
		C433.1,400.2,436.1,407.1,435.8,411.6L435.8,411.6z M211.4,161.7c1.8,1.7,4.1,4,7,6.2c5.8,4.6,13.9,9.3,24,9.3
		c10.2,0,19.8-5.2,27.9-9.5c4.3-2.3,9.6-6.2,13-9.1c3.4-3,5.2-5.5,2.7-5.8c-2.5-0.3-2.3,2.3-5.3,4.5c-3.9,2.8-8.5,6.5-12.2,8.6
		c-6.5,3.7-17.1,9-26.3,9c-9.1,0-16.4-4.2-21.9-8.5c-2.7-2.2-5-4.4-6.8-6.1c-1.3-1.2-1.7-4-3.8-4.3
		C208.6,155.9,208.3,159.2,211.4,161.7L211.4,161.7z"/>
</g>
</svg>
