<?xml version="1.0" standalone="no"?>
<!DOCTYPE svg PUBLIC "-//W3C//DTD SVG 20010904//EN"
 "http://www.w3.org/TR/2001/REC-SVG-20010904/DTD/svg10.dtd">
<svg version="1.0" xmlns="http://www.w3.org/2000/svg"
 width="1600.000000pt" height="1600.000000pt" viewBox="0 0 1600.000000 1600.000000"
 preserveAspectRatio="xMidYMid meet">
<metadata>
Created by potrace 1.14, written by Peter Selinger 2001-2017
</metadata>
<g transform="translate(0.000000,1600.000000) scale(0.100000,-0.100000)"
fill="#000000" stroke="none">
<path d="M2466 15593 c-3 -10 -17 -67 -31 -128 -14 -60 -28 -119 -30 -130 -3
-11 -7 -31 -10 -45 -3 -14 -7 -36 -10 -50 -3 -14 -8 -36 -11 -50 -2 -14 -7
-32 -10 -40 -3 -8 -8 -26 -11 -40 -2 -14 -15 -70 -28 -125 -21 -87 -46 -196
-61 -260 -3 -11 -6 -32 -9 -47 -2 -15 -6 -31 -9 -36 -3 -5 -8 -24 -11 -43 -3
-19 -17 -81 -31 -139 -14 -58 -27 -114 -30 -125 -2 -11 -6 -29 -9 -40 -26
-112 -57 -246 -61 -269 -3 -16 -7 -32 -9 -36 -2 -3 -6 -17 -9 -31 -3 -13 -7
-35 -10 -49 -3 -14 -8 -36 -11 -50 -3 -14 -7 -34 -9 -45 -2 -11 -9 -32 -14
-46 -6 -15 -8 -29 -6 -32 3 -3 -1 -21 -10 -40 -8 -19 -13 -37 -10 -39 2 -3 -1
-20 -6 -39 -6 -19 -13 -46 -15 -61 -3 -15 -14 -65 -26 -110 -25 -105 -28 -117
-34 -150 -3 -15 -9 -38 -14 -51 -6 -14 -7 -27 -4 -30 3 -3 1 -12 -3 -19 -5 -7
-9 -17 -9 -23 -2 -18 -17 -89 -26 -120 -10 -37 -39 -161 -45 -195 -3 -14 -7
-33 -10 -42 -3 -9 -6 -25 -8 -35 -3 -10 -11 -48 -20 -86 -9 -37 -18 -81 -21
-99 -3 -17 -8 -34 -10 -38 -2 -4 -7 -20 -9 -37 -3 -16 -21 -95 -40 -174 -19
-80 -37 -156 -39 -169 -3 -14 -13 -56 -22 -95 -9 -38 -18 -77 -20 -85 -2 -8
-13 -58 -25 -110 -12 -52 -23 -102 -26 -110 -11 -44 -26 -108 -30 -126 -2 -12
-17 -80 -33 -150 -27 -118 -43 -188 -88 -373 -8 -36 -16 -72 -18 -80 -22 -101
-39 -177 -65 -286 -33 -133 -36 -148 -46 -200 -9 -44 -12 -60 -14 -60 -1 0 -4
-13 -6 -28 -3 -16 -21 -90 -40 -165 -35 -134 -79 -312 -89 -362 -3 -14 -17
-72 -30 -130 -63 -268 -74 -317 -79 -340 -2 -14 -18 -83 -36 -155 -17 -71 -33
-141 -36 -155 -2 -14 -7 -31 -9 -37 -3 -10 76 -13 374 -13 l379 0 28 117 c15
64 27 123 27 130 0 7 3 13 6 13 3 0 7 10 7 23 2 25 9 57 31 142 8 33 17 71 20
85 2 14 10 50 18 80 8 30 16 66 19 80 6 29 35 160 70 310 74 316 86 368 94
395 4 17 8 37 7 45 -1 8 2 20 6 25 4 6 10 28 13 50 4 22 9 48 12 57 3 9 6 25
8 35 3 10 13 56 25 103 11 47 22 96 25 110 2 14 16 75 30 135 14 61 40 166 56
235 45 189 62 268 63 288 0 6 3 12 6 12 4 0 7 12 8 28 1 15 17 90 37 167 19
77 38 156 41 175 3 19 8 43 11 52 5 16 10 37 20 85 2 12 20 86 39 166 30 127
99 428 109 482 4 20 51 216 63 265 11 43 13 54 18 80 2 14 9 45 16 70 6 25 12
52 14 60 2 8 15 65 30 125 15 61 29 119 31 130 2 11 7 36 11 55 9 46 10 50 13
53 1 1 3 9 5 17 12 62 49 222 69 307 14 56 27 112 30 125 2 13 10 46 16 73 6
28 13 58 15 68 2 10 6 26 9 35 3 9 7 28 10 42 2 14 13 63 25 110 11 47 22 97
25 110 3 14 10 43 15 65 5 22 12 51 15 65 3 14 12 54 20 90 9 36 22 94 31 130
8 36 28 121 44 190 16 69 32 136 34 150 3 14 10 45 17 70 7 25 14 59 17 75 2
17 6 36 9 43 2 8 15 63 29 122 14 59 28 115 31 124 6 14 -30 16 -369 16 -349
0 -376 -1 -381 -17z"/>
<path d="M3885 15573 c-4 -21 -9 -47 -13 -58 -3 -11 -7 -24 -8 -30 -4 -20
-124 -541 -134 -580 -8 -33 -24 -101 -45 -195 -8 -38 -60 -260 -120 -520 -37
-157 -68 -292 -70 -300 -2 -8 -13 -58 -25 -110 -12 -52 -23 -102 -25 -110 -2
-8 -20 -85 -39 -170 -20 -85 -41 -173 -46 -195 -6 -22 -13 -50 -15 -63 -2 -13
-6 -31 -9 -40 -3 -9 -7 -28 -10 -42 -2 -14 -14 -65 -26 -115 -12 -49 -24 -100
-26 -111 -2 -12 -17 -77 -33 -145 -17 -68 -32 -135 -35 -149 -2 -14 -14 -65
-26 -115 -12 -49 -23 -97 -25 -105 -2 -8 -35 -154 -75 -325 -68 -297 -118
-513 -125 -545 -2 -8 -48 -208 -103 -445 -55 -236 -177 -765 -272 -1175 -94
-410 -180 -779 -189 -820 -10 -41 -26 -106 -34 -145 -9 -38 -46 -198 -83 -355
-36 -157 -68 -296 -71 -310 -4 -24 -31 -140 -72 -310 -11 -47 -57 -245 -102
-440 -70 -307 -117 -512 -280 -1215 -17 -71 -32 -141 -35 -155 -3 -14 -9 -40
-14 -58 l-8 -32 1021 2 1022 3 17 75 c10 41 34 145 54 230 20 85 37 162 39
170 2 8 38 164 79 345 42 182 94 409 117 505 22 96 42 184 44 195 3 11 97 421
209 910 113 490 219 951 236 1025 18 74 40 171 50 215 11 44 166 717 345 1495
180 778 327 1416 329 1417 2 2 213 -484 679 -1557 209 -482 418 -964 432 -995
7 -16 97 -223 200 -460 102 -236 192 -443 200 -460 7 -16 51 -118 98 -225 210
-486 281 -648 297 -685 10 -22 73 -166 140 -320 67 -154 128 -293 135 -310 7
-16 43 -100 80 -185 37 -85 76 -174 86 -198 46 -102 153 -351 170 -395 11 -26
23 -55 29 -65 5 -9 48 -107 96 -217 47 -110 95 -220 105 -245 11 -25 42 -94
68 -155 l48 -110 997 -3 c548 -1 996 0 996 3 0 3 23 106 51 228 28 122 57 247
64 277 7 30 26 114 43 187 17 72 33 142 36 155 3 13 16 73 30 133 15 61 42
178 61 260 37 161 59 258 125 540 23 99 44 187 45 195 24 105 114 494 138 600
46 197 88 378 91 396 2 11 15 66 29 124 28 114 127 543 133 574 2 10 12 55 23
100 45 185 83 353 87 381 3 17 9 41 14 55 5 14 12 41 15 60 4 19 15 71 26 115
34 146 180 778 200 870 11 50 36 155 55 235 48 205 61 259 179 775 58 253 112
487 120 520 8 33 44 188 80 345 36 157 72 312 80 345 8 33 48 209 90 390 41
182 82 358 90 393 36 150 51 214 165 709 66 287 123 529 126 537 6 14 -94 16
-1040 16 -935 0 -1046 -2 -1046 -15 0 -9 -13 -71 -29 -138 -16 -67 -41 -171
-55 -232 -14 -60 -46 -198 -72 -305 -25 -107 -47 -203 -49 -212 -8 -35 -287
-1228 -310 -1324 -20 -82 -77 -326 -90 -384 -1 -8 -19 -85 -40 -170 -36 -156
-85 -365 -131 -560 -13 -58 -38 -161 -54 -230 -16 -69 -66 -280 -110 -470 -44
-190 -91 -388 -103 -440 -13 -52 -57 -240 -98 -417 -40 -178 -77 -323 -80
-323 -3 0 -40 84 -82 188 -42 103 -112 275 -155 382 -44 107 -118 290 -165
405 -47 116 -225 553 -396 973 -171 420 -311 765 -311 768 0 4 -22 55 -55 129
-7 17 -27 64 -43 105 -16 41 -75 185 -130 320 -55 135 -129 317 -165 405 -179
441 -492 1209 -521 1280 -19 44 -51 122 -71 173 l-38 92 -1488 0 -1488 0 -6
-37z"/>
<path d="M12105 10313 c-5 -10 -9 -27 -10 -38 -1 -11 -5 -34 -10 -50 -5 -17
-9 -32 -10 -35 -6 -21 -19 -78 -21 -90 -1 -8 -5 -26 -9 -40 -3 -14 -7 -29 -8
-35 -2 -5 -5 -14 -8 -20 -4 -5 -5 -18 -4 -27 2 -10 -1 -18 -6 -18 -6 0 -8 -4
-5 -8 4 -7 -3 -47 -20 -107 -3 -11 -6 -30 -7 -42 -1 -13 -4 -23 -9 -23 -4 0
-5 -6 -2 -14 3 -8 0 -17 -5 -21 -6 -3 -9 -11 -6 -16 4 -5 3 -15 -1 -21 -5 -7
-9 -19 -10 -28 -1 -8 -4 -27 -8 -42 -3 -16 -8 -38 -11 -50 -3 -13 -7 -34 -10
-48 -4 -14 -8 -36 -11 -49 -3 -14 -8 -29 -11 -34 -3 -5 -7 -23 -9 -40 -4 -34
-11 -72 -14 -72 -3 0 -11 -39 -12 -55 0 -8 -4 -19 -8 -25 -4 -5 -6 -18 -5 -27
2 -10 0 -18 -4 -18 -4 0 -7 -8 -8 -17 -2 -30 -14 -87 -24 -121 -6 -18 -12 -43
-14 -55 -4 -29 -12 -63 -21 -90 -4 -12 -9 -31 -10 -42 -4 -22 -11 -57 -14 -65
-1 -3 -3 -9 -4 -15 -1 -5 -6 -30 -11 -55 -5 -25 -8 -48 -7 -52 1 -5 -2 -8 -7
-8 -5 0 -8 -8 -6 -17 1 -10 -2 -24 -8 -31 -5 -7 -7 -15 -4 -18 3 -3 1 -20 -5
-37 -5 -18 -11 -39 -13 -47 -2 -8 -4 -15 -5 -15 -1 0 -3 -11 -4 -25 0 -14 -5
-31 -9 -37 -5 -7 -6 -13 -3 -13 3 0 1 -12 -5 -27 -6 -16 -13 -41 -14 -58 -2
-16 -8 -41 -13 -55 -5 -14 -7 -31 -5 -37 3 -7 -1 -13 -7 -13 -7 0 -10 -7 -6
-16 3 -9 3 -21 -1 -27 -4 -6 -8 -26 -10 -43 -3 -29 1 -34 44 -55 219 -105 447
-286 610 -484 54 -66 173 -246 173 -261 0 -7 3 -14 8 -16 7 -3 72 -123 72
-133 0 -3 10 -29 23 -58 13 -28 30 -70 36 -92 7 -22 16 -49 21 -60 11 -24 48
-151 54 -185 2 -14 5 -25 7 -25 1 0 3 -9 5 -20 1 -11 5 -31 9 -45 3 -14 8 -38
10 -55 3 -16 7 -41 11 -55 3 -14 7 -38 9 -55 1 -16 6 -48 9 -70 11 -65 18
-173 20 -282 1 -56 5 -106 10 -110 12 -13 2216 -10 2227 3 9 11 11 25 24 139
4 33 9 69 11 80 24 119 23 735 -1 933 -3 23 -7 61 -10 83 -2 23 -7 60 -11 83
-4 23 -8 50 -10 61 -14 97 -37 212 -54 270 -5 17 -11 41 -14 55 -3 14 -10 43
-16 65 -6 22 -12 45 -13 50 -1 6 -6 16 -10 23 -5 6 -6 12 -2 12 3 0 -1 16 -9
35 -9 20 -15 38 -16 40 0 3 -1 7 -1 10 -1 3 -2 8 -3 13 -3 12 -57 155 -72 189
-8 17 -14 35 -14 40 0 4 -16 38 -35 76 -19 37 -32 67 -30 67 9 0 -188 357
-205 370 -3 3 -17 23 -30 45 -13 22 -30 46 -37 53 -7 7 -20 26 -30 42 -9 17
-21 30 -25 30 -4 0 -8 5 -8 11 0 12 -117 155 -200 244 -129 139 -295 289 -425
386 -33 24 -69 52 -79 62 -11 9 -25 17 -32 17 -7 0 -14 3 -16 8 -3 7 -103 75
-143 98 -11 6 -42 25 -70 42 -71 43 -380 198 -435 217 -3 1 -18 7 -35 14 -108
45 -332 123 -389 136 -10 2 -33 9 -51 15 -18 6 -41 13 -51 15 -10 3 -46 12
-79 20 -33 9 -71 18 -85 20 -36 6 -68 13 -93 20 -12 4 -29 9 -38 11 -10 3 -20
-3 -24 -13z"/>
<path d="M6120 8077 c-22 -27 -59 -73 -107 -131 -73 -89 -293 -401 -293 -415
0 -5 -7 -14 -15 -21 -9 -7 -43 -59 -76 -114 -33 -56 -64 -108 -69 -116 -77
-126 -304 -565 -305 -589 0 -3 -10 -26 -21 -51 -26 -55 -47 -103 -49 -110 -1
-3 -7 -18 -14 -35 -51 -122 -183 -505 -174 -505 3 0 0 -7 -7 -15 -7 -8 -9 -15
-6 -15 4 0 2 -8 -3 -18 -6 -11 -12 -30 -15 -43 -3 -13 -13 -51 -21 -84 -9 -33
-18 -69 -20 -80 -20 -86 -23 -98 -26 -105 -1 -3 -3 -9 -4 -15 -2 -13 -14 -73
-20 -102 -3 -13 -7 -31 -9 -40 -2 -10 -7 -38 -11 -63 -10 -58 -13 -79 -21
-115 -4 -16 -8 -43 -9 -60 -2 -16 -6 -52 -10 -80 -50 -337 -61 -759 -30 -1200
1 -22 6 -65 10 -95 4 -30 9 -68 11 -85 1 -16 3 -30 4 -30 1 0 3 -11 4 -25 1
-14 6 -45 10 -70 4 -25 10 -58 13 -75 3 -16 6 -41 8 -55 1 -14 5 -35 9 -47 4
-11 9 -34 11 -49 2 -16 7 -40 10 -54 4 -14 8 -32 9 -40 1 -8 5 -24 9 -35 3
-11 9 -33 12 -50 9 -47 10 -49 18 -62 5 -7 6 -13 3 -13 -3 0 -1 -11 4 -25 5
-14 12 -36 14 -48 2 -12 19 -65 36 -117 18 -52 33 -102 35 -110 2 -8 4 -16 5
-17 2 -2 3 -6 4 -10 2 -5 7 -19 14 -33 6 -14 27 -68 47 -120 51 -131 130 -297
205 -430 17 -30 33 -63 36 -72 4 -10 10 -18 15 -18 5 0 9 -5 9 -10 0 -18 177
-281 239 -356 14 -16 37 -45 51 -64 69 -95 339 -368 470 -476 149 -123 400
-295 545 -373 22 -12 47 -26 55 -31 48 -31 353 -167 440 -197 25 -9 56 -20 70
-26 14 -5 31 -11 38 -13 8 -1 21 -6 30 -10 9 -4 20 -8 25 -9 4 -2 8 -3 10 -5
1 -1 9 -3 17 -5 8 -1 40 -10 70 -19 52 -17 185 -53 223 -62 9 -2 27 -6 40 -10
23 -5 43 -10 87 -18 24 -4 108 -21 160 -31 14 -3 43 -7 65 -10 22 -3 57 -8 78
-11 76 -12 189 -25 262 -30 28 -2 97 -6 155 -10 124 -9 468 -8 595 0 150 11
193 14 237 20 24 3 63 8 88 11 68 8 163 22 200 30 14 3 41 7 60 10 19 3 46 7
60 10 14 3 39 8 55 11 45 9 60 12 60 14 0 1 11 3 25 5 14 2 35 6 48 9 12 3 31
8 42 10 11 3 48 12 83 21 34 9 69 18 77 20 8 1 35 8 60 15 25 7 45 11 46 9 0
-2 8 2 17 10 10 7 17 11 17 8 0 -3 24 2 53 12 28 10 54 18 57 18 3 0 30 8 60
18 30 11 58 20 63 21 4 1 9 3 12 4 3 1 8 3 13 5 4 1 16 5 27 9 11 4 34 12 50
18 17 5 39 14 50 18 23 9 54 20 58 19 1 0 34 14 72 31 39 17 71 31 72 31 6 -1
42 13 103 41 36 17 72 31 80 33 8 2 36 15 63 29 26 14 50 25 52 25 9 0 339
165 345 172 3 4 37 23 75 43 69 37 117 64 211 120 64 38 346 218 359 229 8 7
71 52 204 145 13 9 35 27 49 40 14 12 28 22 31 22 3 0 18 10 32 23 15 12 44
36 65 52 116 92 233 191 343 290 69 61 439 431 501 500 46 51 163 188 190 221
8 11 42 53 75 94 86 107 239 318 315 435 36 55 67 102 70 105 5 5 80 129 106
175 17 32 55 97 75 130 23 39 199 391 199 399 0 3 13 33 29 66 16 33 27 60 25
60 -3 0 3 15 13 33 9 17 18 34 18 37 2 5 19 49 32 80 3 8 8 23 10 33 2 10 9
28 15 40 7 12 13 25 14 30 1 4 2 8 4 10 1 1 3 9 5 17 2 8 13 41 24 73 11 31
17 58 13 58 -28 5 -2121 4 -2134 -1 -10 -3 -54 -77 -104 -175 -47 -94 -92
-177 -100 -186 -8 -8 -14 -19 -14 -23 0 -8 -147 -234 -164 -252 -6 -6 -18 -22
-26 -34 -8 -12 -19 -28 -25 -34 -5 -6 -29 -36 -51 -66 -42 -56 -48 -63 -132
-159 -116 -134 -338 -346 -481 -461 -24 -19 -48 -39 -55 -45 -55 -49 -236
-173 -376 -258 -52 -32 -102 -62 -110 -67 -17 -11 -354 -178 -385 -191 -31
-13 -79 -32 -85 -33 -3 -1 -11 -5 -17 -9 -7 -5 -21 -10 -30 -12 -10 -2 -43
-13 -73 -25 -49 -19 -72 -26 -105 -33 -5 -2 -15 -6 -21 -9 -6 -4 -24 -10 -40
-13 -47 -10 -48 -10 -61 -18 -7 -5 -13 -6 -13 -3 0 3 -18 -1 -40 -9 -22 -8
-41 -14 -43 -14 -1 0 -13 -2 -27 -5 -14 -3 -37 -8 -52 -10 -15 -3 -31 -7 -36
-10 -7 -4 -24 -7 -127 -21 -16 -2 -48 -6 -70 -9 -147 -21 -461 -27 -595 -12
-36 5 -78 9 -95 11 -16 2 -41 6 -55 9 -13 3 -40 8 -60 11 -20 3 -47 8 -60 11
-14 3 -38 8 -55 11 -16 2 -37 7 -45 10 -8 4 -18 7 -22 8 -5 2 -9 3 -10 5 -2 1
-11 3 -20 5 -19 3 -85 23 -108 32 -8 4 -17 7 -20 8 -3 1 -14 5 -25 10 -11 4
-40 16 -65 26 -135 53 -316 158 -435 254 -128 103 -247 225 -330 339 -16 23
-32 43 -35 46 -5 5 -62 93 -87 135 -17 28 -117 233 -135 275 -8 19 -25 64 -38
100 -12 36 -26 74 -30 85 -11 27 -42 145 -45 170 -1 11 -3 20 -4 20 -3 0 -10
33 -16 75 -3 19 -7 42 -10 50 -2 8 -7 33 -10 55 -4 22 -9 54 -11 70 -3 17 -7
53 -10 80 -2 28 -7 84 -10 125 -8 88 -8 382 0 490 11 158 30 320 47 409 6 30
12 64 14 75 4 31 14 77 23 111 9 36 5 75 -9 75 -6 0 -7 5 -4 10 3 6 1 10 -5
10 -6 0 -8 5 -5 10 3 6 1 10 -4 10 -6 0 -10 3 -9 8 1 4 -5 21 -12 37 -7 17
-14 32 -15 35 0 3 -6 15 -13 28 -7 12 -10 22 -6 22 4 0 0 8 -9 18 -10 10 -14
22 -10 25 3 4 0 7 -7 7 -7 0 -11 3 -7 6 3 4 -3 24 -14 45 -11 22 -16 39 -12
39 5 0 3 4 -2 8 -11 8 -85 174 -85 191 0 6 -5 11 -11 11 -5 0 -8 4 -4 9 3 5 1
12 -5 16 -5 3 -10 15 -10 26 0 10 -5 19 -10 19 -6 0 -9 3 -8 8 1 7 -3 18 -45
112 -11 25 -20 51 -20 58 0 6 -4 12 -9 12 -5 0 -6 5 -3 10 3 6 1 10 -4 10 -6
0 -11 9 -11 20 0 11 -4 20 -10 20 -5 0 -9 3 -8 8 2 4 -8 32 -22 62 -13 30 -25
57 -25 60 -1 3 -7 18 -13 33 -7 16 -12 33 -12 38 0 5 -5 9 -11 9 -5 0 -7 5 -4
10 3 6 1 10 -5 10 -6 0 -8 5 -5 11 4 5 0 18 -8 27 -9 9 -16 20 -16 25 -1 4 -8
24 -17 45 -10 20 -18 39 -19 42 -9 34 -31 80 -39 80 -5 0 -7 3 -3 6 3 4 -3 24
-13 45 -11 21 -20 45 -20 52 0 8 -7 20 -15 27 -9 7 -13 15 -11 18 3 2 -6 26
-19 52 -13 26 -21 50 -18 54 4 3 1 6 -5 6 -7 0 -12 4 -12 10 0 5 -18 51 -41
102 -22 51 -41 98 -43 103 -1 6 -10 25 -19 42 -10 18 -18 36 -18 40 -1 5 -15
37 -31 73 -17 36 -31 71 -31 78 0 6 -4 12 -9 12 -5 0 -6 5 -3 10 3 6 1 10 -5
10 -6 0 -8 5 -5 10 3 6 1 10 -6 10 -7 0 -10 3 -6 6 3 4 -3 24 -14 45 -11 22
-16 39 -12 39 5 0 2 4 -5 9 -7 4 -14 14 -16 22 -1 8 -14 40 -29 73 -15 32 -27
65 -27 72 0 8 -5 14 -11 14 -5 0 -7 5 -4 10 3 6 1 10 -6 10 -7 0 -10 3 -6 6 7
7 -17 59 -31 68 -4 2 -19 -10 -32 -27z"/>
</g>
</svg>
